<?xml version="1.0" encoding="UTF-8" standalone="no"?>
<svg xmlns="http://www.w3.org/2000/svg" id="pr0gramm-logo" width="22" height="22" viewBox="0 0 22 22" version="1.1">
    <rect id="pr0gramm-logo-background" x="0" y="0" width="22" height="22" rx="2" style="fill:#d23c22" />
    <g id="pr0gramm-logo-sign" transform="translate(3,4)" style="fill:#ffffff">
        <rect x="8" y="10" width="7" height="2" rx="1" />
        <path d="M 2,9.7 C 2.4,9.3 2.9,9 3.3,8.6 3.8,8.2 4.2,7.8 4.7,7.5 5.1,7.1 5.5,6.8 5.8,6.5 5.5,6.3 5.2,6 4.7,5.6 4.3,5.2 3.9,4.8 3.4,4.4 2.9,4 2.5,3.7 2,3.3 1.6,2.9 1.2,2.6 1,2.4 0.7,2.1 0.6,1.8 0.6,1.5 0.6,1.2 0.7,0.9 0.9,0.7 1.1,0.5 1.3,0.4 1.6,0.4 1.8,0.4 1.9,0.5 2.2,0.6 2.2,0.6 2.4,0.8 2.7,1 3,1.3 3.4,1.6 3.8,2 4.2,2.3 4.6,2.7 5.1,3.1 5.6,3.5 6,3.9 6.4,4.2 6.8,4.5 7.2,4.8 7.5,5.1 7.8,5.4 8,5.5 8.1,5.6 8.4,5.9 8.5,6.2 8.5,6.6 8.5,6.9 8.4,7.2 8.1,7.5 7.7,7.8 7.2,8.2 6.7,8.6 6.2,9 5.7,9.5 5.1,9.9 4.6,10.3 4.1,10.8 3.5,11.2 3,11.6 2.6,12 2.1,12.3 1.9,12.4 1.7,12.5 1.5,12.5 1.2,12.5 1,12.4 0.8,12.2 0.6,12 0.5,11.8 0.5,11.5 0.5,11.2 0.6,10.9 0.8,10.6 1.1,10.3 1.5,10 2,9.7 Z" />
    </g>
</svg>
